<?xml version="1.0" encoding="UTF-8"?>
<svg version="1.1" xmlns="http://www.w3.org/2000/svg" width="337" height="240">
<path d="M0 0 C111.21 0 222.42 0 337 0 C337 79.2 337 158.4 337 240 C225.79 240 114.58 240 0 240 C0 160.8 0 81.6 0 0 Z " fill="#E4E4E4" transform="translate(0,0)"/>
<path d="M0 0 C27.39 0 54.78 0 83 0 C83 0.66 83 1.32 83 2 C82.25105469 2.5878125 81.50210938 3.175625 80.73046875 3.78125 C77.82705542 6.14053293 76.25494036 8.32225487 74.3125 11.5 C73.73113281 12.4384375 73.14976562 13.376875 72.55078125 14.34375 C71.28289962 16.51543642 70.12461066 18.75077867 69 21 C64.71 21 60.42 21 56 21 C56 40.47 56 59.94 56 80 C48.41 80 40.82 80 33 80 C33 60.53 33 41.06 33 21 C22.11 21 11.22 21 0 21 C0 14.07 0 7.14 0 0 Z " fill="#676767" transform="translate(85,90)"/>
<path d="M0 0 C0 6.93 0 13.86 0 21 C-10.89 21 -21.78 21 -33 21 C-33 40.47 -33 59.94 -33 80 C-40.59 80 -48.18 80 -56 80 C-56 60.53 -56 41.06 -56 21 C-70.19 21 -84.38 21 -99 21 C-92.17273075 13.03485255 -92.17273075 13.03485255 -87.3125 10.25 C-86.38050781 9.69828125 -85.44851562 9.1465625 -84.48828125 8.578125 C-72.47077448 3.14131343 -60.58058234 3.54777592 -47.625 3.5 C-33.13423855 3.44560347 -19.19492744 2.72217891 -4.8934021 0.26745605 C-3 0 -3 0 0 0 Z " fill="#070707" transform="translate(262,90)"/>
<path d="M0 0 C-0.67546875 0.59167969 -1.3509375 1.18335937 -2.046875 1.79296875 C-3.38492188 2.97826172 -3.38492188 2.97826172 -4.75 4.1875 C-5.63171875 4.96480469 -6.5134375 5.74210937 -7.421875 6.54296875 C-10.05484286 8.89484548 -10.05484286 8.89484548 -11.90625 11.69140625 C-14.66720638 14.73566972 -16.74294132 15.03257901 -20.75 15.75 C-21.92046875 15.97171875 -23.0909375 16.1934375 -24.296875 16.421875 C-31.81810021 17.59607472 -38.99979388 18.14230104 -46.60546875 18.17578125 C-48.66211955 18.19898523 -50.7187602 18.2231028 -52.77539062 18.24804688 C-55.97638721 18.28302911 -59.17700995 18.31245585 -62.37817383 18.32592773 C-79.20040535 18.41033106 -92.40139166 19.04890832 -106 30 C-106.63550781 30.47308594 -107.27101562 30.94617188 -107.92578125 31.43359375 C-115.00299749 36.97296699 -119.90673953 44.63000108 -123 53 C-124.9446001 47.16619969 -121.29150175 40.66518997 -118.7109375 35.33984375 C-111.40839843 22.46860869 -100.98945483 12.97799944 -87 8 C-83.65443901 7.22730319 -80.54249523 6.86926456 -77.11230469 6.84228516 C-75.69362091 6.82689194 -75.69362091 6.82689194 -74.24627686 6.81118774 C-72.72444794 6.80023575 -72.72444794 6.80023575 -71.171875 6.7890625 C-68.98697214 6.76095746 -66.80207643 6.73229284 -64.6171875 6.703125 C-61.20150233 6.66219525 -57.78594514 6.62528042 -54.37011719 6.59863281 C-36.98430597 6.45151039 -20.99153748 5.38881645 -4.44140625 -0.328125 C-2 -1 -2 -1 0 0 Z " fill="#0669AD" transform="translate(274,74)"/>
<path d="M0 0 C-0.67546875 0.59167969 -1.3509375 1.18335937 -2.046875 1.79296875 C-2.93890625 2.58316406 -3.8309375 3.37335938 -4.75 4.1875 C-5.63171875 4.96480469 -6.5134375 5.74210937 -7.421875 6.54296875 C-10.05242083 8.90005548 -10.05242083 8.90005548 -11.94140625 11.6875 C-15.92413194 16.16145372 -22.26335517 16.4198452 -28 17 C-33.66908698 17.29428052 -39.32907353 17.18536927 -45 17 C-44.01 16.01 -43.02 15.02 -42 14 C-42.639375 13.87625 -43.27875 13.7525 -43.9375 13.625 C-44.618125 13.41875 -45.29875 13.2125 -46 13 C-46.33 12.34 -46.66 11.68 -47 11 C-47.99 11.495 -47.99 11.495 -49 12 C-49.33 10.68 -49.66 9.36 -50 8 C-49.11441406 7.90501221 -48.22882813 7.81002441 -47.31640625 7.7121582 C-25.56963393 5.56662364 -25.56963393 5.56662364 -4.5703125 -0.14453125 C-2 -1 -2 -1 0 0 Z " fill="#0C4B9F" transform="translate(274,74)"/>
<path d="M0 0 C-0.33 0.99 -0.66 1.98 -1 3 C-0.34 3.66 0.32 4.32 1 5 C0.67 5.33 0.34 5.66 0 6 C0.99 6.66 1.98 7.32 3 8 C2.21238281 8.24492188 1.42476562 8.48984375 0.61328125 8.7421875 C-14.30820489 13.86317091 -25.79762206 23.1736009 -33.21484375 37.31640625 C-34.14337946 39.36044073 -34.14337946 39.36044073 -35 42 C-36.9446001 36.16619969 -33.29150175 29.66518997 -30.7109375 24.33984375 C-25.84908459 15.77048849 -11.86172419 -4.23633007 0 0 Z " fill="#0C59A4" transform="translate(186,85)"/>
<path d="M0 0 C0.495 1.98 0.495 1.98 1 4 C-1.1233397 4.4864712 -3.24878613 4.96374872 -5.375 5.4375 C-6.55835938 5.70433594 -7.74171875 5.97117187 -8.9609375 6.24609375 C-17.09982299 7.8848509 -25.30469208 8.13806057 -33.58203125 8.17578125 C-35.58659907 8.1989775 -37.5911564 8.22309476 -39.59570312 8.24804688 C-42.70230201 8.28305701 -45.80851139 8.31248274 -48.9152832 8.32592773 C-69.39875646 8.33596523 -69.39875646 8.33596523 -87.9375 16.4375 C-89.26007813 17.3346875 -89.26007813 17.3346875 -90.609375 18.25 C-93.52910798 20.38732087 -96.29970586 22.59162955 -99 25 C-99.66 24.67 -100.32 24.34 -101 24 C-83.90067089 7.91681954 -69.80512416 5.42488915 -46.875 5.4375 C-22.68167161 6.52183941 -22.68167161 6.52183941 0 0 Z " fill="#E0E3E5" transform="translate(261,86)"/>
<path d="M0 0 C-0.67546875 0.59167969 -1.3509375 1.18335937 -2.046875 1.79296875 C-2.93890625 2.58316406 -3.8309375 3.37335938 -4.75 4.1875 C-5.63171875 4.96480469 -6.5134375 5.74210937 -7.421875 6.54296875 C-10.05156241 8.92238562 -10.05156241 8.92238562 -12.08203125 11.71484375 C-14.91645569 15.0919075 -17.74230612 15.54381851 -22 16 C-24.9375 15.75 -24.9375 15.75 -27 15 C-27.33 14.34 -27.66 13.68 -28 13 C-27.34 13 -26.68 13 -26 13 C-26.33 12.01 -26.66 11.02 -27 10 C-26.5625 7.8125 -26.5625 7.8125 -26 6 C-24.77023438 5.66226563 -23.54046875 5.32453125 -22.2734375 4.9765625 C-20.64060198 4.52612511 -19.00779076 4.07559962 -17.375 3.625 C-16.56675781 3.40328125 -15.75851562 3.1815625 -14.92578125 2.953125 C-11.41585132 1.98290047 -7.97388576 0.99074507 -4.5390625 -0.2265625 C-2 -1 -2 -1 0 0 Z " fill="#11218B" transform="translate(274,74)"/>
<path d="M0 0 C1.31478333 0.00424484 1.31478333 0.00424484 2.65612793 0.00857544 C5.42714699 0.01967758 8.19783035 0.04476296 10.96875 0.0703125 C12.8593703 0.08035521 14.74999571 0.08947879 16.640625 0.09765625 C21.25012729 0.11958415 25.85938194 0.15404405 30.46875 0.1953125 C30.46875 0.5253125 30.46875 0.8553125 30.46875 1.1953125 C22.54875 1.5253125 14.62875 1.8553125 6.46875 2.1953125 C5.80875 3.5153125 5.14875 4.8353125 4.46875 6.1953125 C1.90625 6.8203125 1.90625 6.8203125 -0.53125 7.1953125 C-0.86125 7.8553125 -1.19125 8.5153125 -1.53125 9.1953125 C-3.84375 8.9453125 -3.84375 8.9453125 -6.53125 8.1953125 C-7.5573234 6.88193854 -8.55852325 5.54867145 -9.53125 4.1953125 C-11.52785454 3.29949077 -11.52785454 3.29949077 -13.53125 3.1953125 C-14.52125 3.6903125 -14.52125 3.6903125 -15.53125 4.1953125 C-16.19125 3.5353125 -16.85125 2.8753125 -17.53125 2.1953125 C-11.53148054 0.45441554 -6.22813873 -0.07711817 0 0 Z " fill="#1F80B8" transform="translate(201.53125,80.8046875)"/>
<path d="M0 0 C1.5625 1.25 1.5625 1.25 3 3 C2.63632774 6.76602829 0.66740744 8.83498465 -1.75 11.625 C-5.71954912 16.42272844 -8.48736852 21.32241926 -11 27 C-12.73621616 21.79135152 -10.01072554 16.92239933 -8 12 C-5.74293544 7.67539539 -3.4646189 3.4646189 0 0 Z " fill="#15268C" transform="translate(162,100)"/>
<path d="M0 0 C0.99 0 1.98 0 3 0 C3.70088264 5.08139915 3.70088264 5.08139915 3 8 C0.66323826 10.55016464 -1.94880791 12.38250058 -5 14 C-5.66 14 -6.32 14 -7 14 C-7 13.34 -7 12.68 -7 12 C-7.66 11.67 -8.32 11.34 -9 11 C-9.33 10.01 -9.66 9.02 -10 8 C-9.09325024 7.01164277 -8.17410978 6.03464519 -7.25 5.0625 C-6.73953125 4.51722656 -6.2290625 3.97195312 -5.703125 3.41015625 C-3.80621924 1.83955308 -2.40298839 1.41268714 0 1 C0 0.67 0 0.34 0 0 Z " fill="#154199" transform="translate(172,91)"/>
<path d="M0 0 C0.33 0.66 0.66 1.32 1 2 C0.33333333 4 -0.33333333 6 -1 8 C-0.67 8.66 -0.34 9.32 0 10 C-3.3 10 -6.6 10 -10 10 C-10.66 7.69 -11.32 5.38 -12 3 C-11.34 3 -10.68 3 -10 3 C-10 2.34 -10 1.68 -10 1 C-6.61981469 -0.04005702 -3.5219721 -0.08004482 0 0 Z " fill="#0E3C97" transform="translate(248,80)"/>
<path d="M0 0 C0.33 2.97 0.66 5.94 1 9 C-3.455 9.495 -3.455 9.495 -8 10 C-8.66 9.01 -9.32 8.02 -10 7 C-9.34 7 -8.68 7 -8 7 C-8.33 6.01 -8.66 5.02 -9 4 C-8.6875 1.875 -8.6875 1.875 -8 0 C-5.13822943 -1.43088528 -3.06624227 -0.59991697 0 0 Z " fill="#112D90" transform="translate(256,80)"/>
<path d="M0 0 C0 0.33 0 0.66 0 1 C-2.31 1 -4.62 1 -7 1 C-7 1.66 -7 2.32 -7 3 C-7.81082031 3.20753906 -8.62164062 3.41507812 -9.45703125 3.62890625 C-20.22482711 6.62483548 -28.68968435 11.58809685 -37 19 C-37.66 18.67 -38.32 18.34 -39 18 C-27.8110159 7.47593503 -16.24966151 -1.27448326 0 0 Z " fill="#D4D8DB" transform="translate(199,92)"/>
<path d="M0 0 C0 2.33333333 0 4.66666667 0 7 C-1.98 7.66 -3.96 8.32 -6 9 C-7.04449911 5.86650268 -6.93423645 5.01031744 -6 2 C-7.32 2.99 -8.64 3.98 -10 5 C-10.66 4.34 -11.32 3.68 -12 3 C-8.08270009 -0.33695918 -5.0005885 -1.66686283 0 0 Z " fill="#114D9E" transform="translate(181,89)"/>
<path d="M0 0 C-3 2 -3 2 -5 3 C-4.34 3.66 -3.68 4.32 -3 5 C-2 6 -1 7 0 8 C-5.41538462 9.23076923 -5.41538462 9.23076923 -8.375 8.0625 C-8.91125 7.711875 -9.4475 7.36125 -10 7 C-10 6.34 -10 5.68 -10 5 C-10.31478446 3.66216607 -10.64587656 2.32796291 -11 1 C-7.2297564 -1.56376565 -4.32597804 -0.83191885 0 0 Z " fill="#0766AA" transform="translate(195,84)"/>
<path d="M0 0 C0.33 1.32 0.66 2.64 1 4 C-7.28232067 6.1123498 -14.52236178 7.62129948 -23 6 C-23 5.67 -23 5.34 -23 5 C-22.44538086 4.91959473 -21.89076172 4.83918945 -21.31933594 4.75634766 C-18.79512602 4.38632023 -16.27261061 4.00577141 -13.75 3.625 C-12.87730469 3.49867187 -12.00460938 3.37234375 -11.10546875 3.2421875 C-10.26113281 3.11328125 -9.41679687 2.984375 -8.546875 2.8515625 C-7.77182617 2.73635254 -6.99677734 2.62114258 -6.19824219 2.50244141 C-3.89091581 1.97506716 -2.06586626 1.13993019 0 0 Z " fill="#C3C8D2" transform="translate(261,86)"/>
<path d="M0 0 C3.0833134 -0.02911321 6.16659125 -0.04683682 9.25 -0.0625 C10.12269531 -0.07087891 10.99539062 -0.07925781 11.89453125 -0.08789062 C12.73886719 -0.09111328 13.58320313 -0.09433594 14.453125 -0.09765625 C15.22817383 -0.10289307 16.00322266 -0.10812988 16.80175781 -0.11352539 C18.99283598 -0.00036998 20.89637861 0.39447552 23 1 C23 1.66 23 2.32 23 3 C21.54536519 3.38909985 20.08608793 3.76088029 18.625 4.125 C17.81289062 4.33382812 17.00078125 4.54265625 16.1640625 4.7578125 C15.44992188 4.83773437 14.73578125 4.91765625 14 5 C13.34 4.34 12.68 3.68 12 3 C12.33 2.67 12.66 2.34 13 2 C8.71 1.67 4.42 1.34 0 1 C0 0.67 0 0.34 0 0 Z " fill="#0370B0" transform="translate(193,82)"/>
<path d="M0 0 C-1.26257233 1.17560179 -2.53537084 2.34022865 -3.8125 3.5 C-4.87404297 4.47453125 -4.87404297 4.47453125 -5.95703125 5.46875 C-8 7 -8 7 -11 7 C-11 6.01 -11 5.02 -11 4 C-12.32 3.67 -13.64 3.34 -15 3 C-12.87790224 2.30359327 -10.75221473 1.61811643 -8.625 0.9375 C-6.84996094 0.36322266 -6.84996094 0.36322266 -5.0390625 -0.22265625 C-2 -1 -2 -1 0 0 Z " fill="#2C2B8D" transform="translate(274,74)"/>
<path d="M0 0 C1.125 1.6875 1.125 1.6875 2 4 C1.375 6.25 1.375 6.25 0 9 C-0.3403125 9.69222656 -0.680625 10.38445312 -1.03125 11.09765625 C-2.00658603 13.07271171 -2.99743059 15.03866275 -4 17 C-5.27424413 13.17726761 -4.44830198 11.69293974 -3.125 7.9375 C-2.75632813 6.87402344 -2.38765625 5.81054688 -2.0078125 4.71484375 C-1 2 -1 2 0 0 Z " fill="#363491" transform="translate(155,110)"/>
<path d="M0 0 C0.99 0.33 1.98 0.66 3 1 C2.67 2.98 2.34 4.96 2 7 C1.34 7 0.68 7 0 7 C-0.33 7.99 -0.66 8.98 -1 10 C-1 9.34 -1 8.68 -1 8 C-1.66 7.67 -2.32 7.34 -3 7 C-3.33 6.01 -3.66 5.02 -4 4 C-2.68 2.68 -1.36 1.36 0 0 Z " fill="#133494" transform="translate(166,95)"/>
<path d="M0 0 C1 3 1 3 0.00390625 5.04296875 C-0.47175781 5.75066406 -0.94742187 6.45835938 -1.4375 7.1875 C-1.91058594 7.90292969 -2.38367188 8.61835937 -2.87109375 9.35546875 C-3.24363281 9.89816406 -3.61617188 10.44085938 -4 11 C-4.99 10.01 -5.98 9.02 -7 8 C-6.02133662 6.85373678 -5.04205413 5.70800212 -4.0625 4.5625 C-3.51722656 3.92441406 -2.97195313 3.28632812 -2.41015625 2.62890625 C-1.63204305 1.73008851 -0.84063472 0.84063472 0 0 Z " fill="#D6D8E0" transform="translate(270,76)"/>
<path d="M0 0 C0.66 0.66 1.32 1.32 2 2 C0.70910257 3.4590143 -0.58274439 4.91718851 -1.875 6.375 C-2.59429687 7.18710938 -3.31359375 7.99921875 -4.0546875 8.8359375 C-5.33295938 10.25795079 -6.64794586 11.64794586 -8 13 C-8 9.21775154 -6.90729614 8.2717904 -4.5625 5.375 C-3.92441406 4.57835938 -3.28632813 3.78171875 -2.62890625 2.9609375 C-1 1 -1 1 0 0 Z " fill="#D2D4DA" transform="translate(166,92)"/>
<path d="M0 0 C3.3 0 6.6 0 10 0 C10 0.33 10 0.66 10 1 C12.64 1.33 15.28 1.66 18 2 C18 2.33 18 2.66 18 3 C13.38 3 8.76 3 4 3 C4 2.34 4 1.68 4 1 C2.68 0.67 1.36 0.34 0 0 Z " fill="#1C61A6" transform="translate(220,89)"/>
<path d="M0 0 C1.32 0.33 2.64 0.66 4 1 C4 2.32 4 3.64 4 5 C0.37 5.33 -3.26 5.66 -7 6 C-7 5.34 -7 4.68 -7 4 C-5.824375 3.8453125 -5.824375 3.8453125 -4.625 3.6875 C-1.66954819 3.22404978 -1.66954819 3.22404978 0 0 Z " fill="#D9DCE1" transform="translate(252,74)"/>
<path d="M0 0 C0 0.33 0 0.66 0 1 C-2.31 1 -4.62 1 -7 1 C-7 1.66 -7 2.32 -7 3 C-10.375 3.625 -10.375 3.625 -14 4 C-14.66 3.34 -15.32 2.68 -16 2 C-10.42932723 0.40837921 -5.78898419 -0.20674944 0 0 Z " fill="#AAC0D0" transform="translate(199,92)"/>
<path d="M0 0 C1.32 0 2.64 0 4 0 C4.66 1.32 5.32 2.64 6 4 C4.125 5.0625 4.125 5.0625 2 6 C1.34 5.67 0.68 5.34 0 5 C0 3.35 0 1.7 0 0 Z " fill="#0D1586" transform="translate(259,78)"/>
<path d="M0 0 C0.99 0.33 1.98 0.66 3 1 C0.03 3.475 0.03 3.475 -3 6 C-3.66 5.67 -4.32 5.34 -5 5 C-3.35 3.35 -1.7 1.7 0 0 Z " fill="#C9CBD4" transform="translate(165,105)"/>
</svg>
